<?xml version="1.0" encoding="UTF-8"?>
<svg width="70px" height="60px" viewBox="0 0 70 60" version="1.1" xmlns="http://www.w3.org/2000/svg" xmlns:xlink="http://www.w3.org/1999/xlink">
    <title>Icon_retirement_blue</title>
    <defs>
        <polygon id="path-1" points="0 0.538666667 60.5883826 0.538666667 60.5883826 59.9997333 0 59.9997333"></polygon>
    </defs>
    <g id="Desktop-" stroke="none" stroke-width="1" fill="none" fill-rule="evenodd">
        <g id="Group" transform="translate(0.000000, -5.000000)">
            <g id="Group-3" transform="translate(0.000000, 5.000000)">
                <mask id="mask-2" fill="white">
                    <use xlink:href="#path-1"></use>
                </mask>
                <g id="Clip-2"></g>
                <path d="M19.1932522,40.7730667 C25.183187,44.0557333 32.8917304,44.4064 41.6664478,41.7704 L46.8607304,52.2970667 C41.8799478,54.2077333 36.2732522,55.1770667 30.1812087,55.1770667 C24.6845783,55.1770667 19.1574478,54.0490667 13.7364043,51.8224 L19.1932522,40.7730667 Z M42.8877739,35.1677333 C42.996513,35.4290667 42.9938609,35.7264 42.8798174,35.9824 C42.7763826,36.2210667 42.5894043,36.3957333 42.3520348,36.4784 C32.0788391,40.0810667 23.4791652,39.2144 18.0581217,34.0250667 C17.9228609,33.8584 17.863187,33.6237333 17.893687,33.3744 C17.9281652,33.0890667 18.078013,32.8290667 18.3061,32.6584 L18.3061,32.6570667 C18.4625783,32.5397333 18.6508826,32.4824 18.8444913,32.4824 C19.1123609,32.4824 19.3961435,32.5917333 19.633513,32.8077333 C22.4448174,35.3610667 25.9218174,36.6424 30.2621,36.7210667 C33.7019696,36.8024 37.5569043,36.0690667 41.7035783,34.6117333 C42.1690348,34.4570667 42.6875348,34.6917333 42.8877739,35.1677333 L42.8877739,35.1677333 Z M58.1881652,45.8210667 C57.6802739,45.8210667 57.2042087,45.9837333 56.8050565,46.2850667 L56.8037304,46.2837333 L56.7864913,46.2984 C56.6764261,46.3824 56.5716652,46.4784 56.4735348,46.5850667 L56.2905348,46.7517333 C55.500187,47.4757333 53.8332957,48.8517333 51.2222304,50.2837333 L46.0186652,39.7397333 C47.7094261,38.0944 48.2451652,35.5237333 47.3062957,33.2930667 C46.1260783,30.4784 42.9686652,29.0584 40.1215565,30.0610667 C36.5106217,31.3290667 33.2325348,31.9410667 30.3443174,31.8984 C27.1736435,31.8410667 24.7906652,30.9930667 22.8479478,29.2290667 C20.7182522,27.2957333 17.6695783,27.1144 15.4364478,28.7944 C15.119513,29.0290667 14.8317522,29.2957333 14.5718391,29.5877333 C13.9366435,28.5224 13.350513,27.3597333 12.8253826,26.1184 C10.3681435,20.3157333 9.05266522,12.5157333 8.91607826,2.93173333 C8.89618696,1.61173333 7.8247087,0.5384 6.52381739,0.5384 C5.87668696,0.5384 5.26933913,0.795733333 4.81316522,1.26106667 C4.3569913,1.7264 4.10901304,2.33973333 4.11829565,2.98906667 C4.26416522,13.2090667 5.7096,21.6277333 8.41216522,28.0090667 C10.1612739,32.1357333 12.4514261,35.4824 15.2229478,37.9650667 L9.3894913,49.7824 C6.65907826,48.3317333 4.71238261,46.9637333 3.76025217,46.2477333 L3.18207826,45.8517333 L3.11179565,45.9437333 C2.87840435,45.8610667 2.64368696,45.8210667 2.40101304,45.8210667 C1.07625217,45.8210667 -0.000530434783,46.9064 -0.000530434783,48.2370667 C-0.000530434783,48.7010667 0.142686957,49.1544 0.4026,49.5424 L0.300491304,49.6704 L0.889273913,50.1117333 C3.97773043,52.4304 15.2176435,59.9997333 30.1812087,59.9997333 C47.1259478,59.9997333 56.3449043,53.2290667 59.5222087,50.3170667 L59.7436652,50.0477333 C60.2741,49.5930667 60.5883826,48.9357333 60.5883826,48.2370667 C60.5883826,46.9064 59.5116,45.8210667 58.1881652,45.8210667 L58.1881652,45.8210667 Z" id="Fill-1" fill="#00A6B9" mask="url(#mask-2)"></path>
            </g>
            <path d="M70,44.9986445 C70,47.2080651 68.2083897,49 66,49 C63.7902571,49 62,47.2080651 62,44.9986445 C62,42.7905795 63.7902571,41 66,41 C68.2083897,41 70,42.7905795 70,44.9986445" id="Fill-4" fill="#00394F"></path>
        </g>
    </g>
</svg>